<svg width="20" height="22" viewBox="0 0 20 22" fill="none" xmlns="http://www.w3.org/2000/svg">
<path d="M19.4808 18.7L17.7511 3.96H14.5619C14.1835 1.705 12.1835 0 9.75107 0C7.31864 0 5.31864 1.705 4.94026 3.96H1.75107L0.0213376 18.7C-0.0867705 19.525 0.237554 20.02 0.507824 20.35C0.778094 20.625 1.26458 21.01 2.1835 21.01H17.3186C18.0213 21.01 18.6159 20.79 18.9943 20.295C19.3727 19.91 19.5349 19.305 19.4808 18.7ZM9.75107 2.2C10.9403 2.2 11.9673 2.97 12.2916 3.96H7.15647C7.53485 2.915 8.56188 2.2 9.75107 2.2ZM2.1835 18.81L3.69701 6.16H4.8862V7.81C4.8862 8.415 5.37269 8.91 5.96728 8.91C6.56188 8.91 7.04837 8.415 7.04837 7.81V6.16H12.4538V7.81C12.4538 8.415 12.9403 8.91 13.5349 8.91C14.1294 8.91 14.6159 8.415 14.6159 7.81V6.16H15.8051L17.3186 18.81H2.1835Z" fill="black"/>
</svg>
